# xmcd CD database file
#
# Track frame offsets:
#	150
#	12320
#	25338
#	44735
#	61225
#	76290
#	98273
#	114600
#	126483
#	142970
#	154365
#
# Disc length: 2252 seconds
#
# Revision: 2
# Processed by: cddbd v1.4PL0 Copyright (c) Steve Scherf et al.
# Submitted via: CDex 1.40Beta9
#
DISCID=8f08ca0b
DTITLE=Aretha Franklin - After hours
DYEAR=1900
DGENRE=Rhythmic Soul
TTITLE0=Take a look
TTITLE1=Today I sing the blues
TTITLE2=People
TTITLE3=Unforgettable
TTITLE4=Don't cry, baby
TTITLE5=Only the lonely
TTITLE6=Without the one you love
TTITLE7=Mockingbird
TTITLE8=Misty
TTITLE9=Just for a thrill
TTITLE10=I wonder (where are you tonight)
EXTD=ID3G: 118
EXTT0=
EXTT1=
EXTT2=
EXTT3=
EXTT4=
EXTT5=
EXTT6=
EXTT7=
EXTT8=
EXTT9=
EXTT10=
PLAYORDER=
